<?xml version="1.0" encoding="UTF-8"?>
<svg version="1.1" xmlns="http://www.w3.org/2000/svg" width="478" height="246">
<path d="M0 0 C30.29345891 2.70335891 55.84675904 15.05871544 75.9921875 38.42578125 C94.62469893 62.31454591 102.17677981 91.43191143 98.53515625 121.48046875 C94.41558214 148.61328822 78.70018414 173.28336673 57.13378906 189.93847656 C40.63866116 202.08428461 21.49860529 209.30864738 1 210 C-0.03974499 206.58934861 -0.11508506 203.47735158 -0.09765625 199.921875 C-0.09443359 198.76171875 -0.09121094 197.6015625 -0.08789062 196.40625 C-0.07951172 195.1996875 -0.07113281 193.993125 -0.0625 192.75 C-0.05798828 191.52796875 -0.05347656 190.3059375 -0.04882812 189.046875 C-0.03704815 186.03120054 -0.02059853 183.01562502 0 180 C3.06798503 178.37214943 5.92725042 177.4934535 9.32958984 176.75878906 C28.27998519 172.62399285 43.52812823 162.30135971 54.81640625 146.44921875 C56.1743978 144.15805522 56.1743978 144.15805522 55.8605957 142.04467773 C54.65874439 139.18921538 53.05646905 138.41421423 50.4140625 136.8359375 C49.01800781 135.98902344 49.01800781 135.98902344 47.59375 135.125 C46.6140625 134.5475 45.634375 133.97 44.625 133.375 C42.7004842 132.21620667 40.77600352 131.05735502 38.8515625 129.8984375 C37.99385254 129.38974121 37.13614258 128.88104492 36.25244141 128.35693359 C34.47260906 127.28471289 32.72887567 126.15258378 31 125 C30.7421875 125.73347656 30.484375 126.46695313 30.21875 127.22265625 C26.17214281 136.44425148 17.51922332 142.38040341 8.43359375 146.03125 C2.75520833 148 2.75520833 148 0 148 C0 119.95 0 91.9 0 63 C2 62 2 62 4.6875 62.71484375 C15.67678944 66.77103195 25.00437224 72.61732753 31 83 C31 83.66 31 84.32 31 85 C44.77771208 79.06135475 44.77771208 79.06135475 58 72 C49.62130723 56.55691922 36.88455874 43.78210811 20 38 C14.98707537 36.54630468 9.93491994 35.26221656 4.8671875 34.015625 C1 33 1 33 0 32 C-0.0883967 29.6243148 -0.11530305 27.27791326 -0.09765625 24.90234375 C-0.0962413 24.19348526 -0.09482635 23.48462677 -0.09336853 22.75428772 C-0.08775443 20.48198288 -0.07519963 18.20977525 -0.0625 15.9375 C-0.05748681 14.40039204 -0.05292359 12.86328255 -0.04882812 11.32617188 C-0.03778042 7.55074358 -0.02050641 3.77538829 0 0 Z " fill="#00546A" transform="translate(124,8)"/>
<path d="M0 0 C7.59 0 15.18 0 23 0 C23 24.75 23 49.5 23 75 C48.245 74.505 48.245 74.505 74 74 C70.7 70.37 67.4 66.74 64 63 C64.66 61.35 65.32 59.7 66 58 C70.75067756 57.66855738 73.04609847 58.43366869 77 61 C76.98952637 60.22285645 76.97905273 59.44571289 76.96826172 58.64501953 C76.92679718 55.138379 76.90070422 51.63178994 76.875 48.125 C76.85824219 46.90167969 76.84148437 45.67835938 76.82421875 44.41796875 C76.81777344 43.25136719 76.81132812 42.08476562 76.8046875 40.8828125 C76.79421387 39.80402832 76.78374023 38.72524414 76.77294922 37.61376953 C77 35 77 35 79 33 C82.53571429 33.53571429 82.53571429 33.53571429 84 35 C84.66 32.69 85.32 30.38 86 28 C89.75 26.875 89.75 26.875 92 28 C92 34.93 92 41.86 92 49 C92.66 49 93.32 49 94 49 C94 43.39 94 37.78 94 32 C95.65 31.67 97.3 31.34 99 31 C101.5654594 33.5654594 101.54046087 35.47686668 102 39 C102.78375 38.79375 103.5675 38.5875 104.375 38.375 C105.24125 38.25125 106.1075 38.1275 107 38 C109 40 109 40 109.24050903 41.98684692 C109.23606781 42.79959076 109.23162659 43.61233459 109.22705078 44.44970703 C109.22680908 45.38339111 109.22656738 46.3170752 109.22631836 47.27905273 C109.21608643 48.26204346 109.20585449 49.24503418 109.1953125 50.2578125 C109.19329834 51.16007568 109.19128418 52.06233887 109.18920898 52.99194336 C109.17872704 56.36968045 109.15080454 59.74734521 109.125 63.125 C109.08375 70.67375 109.0425 78.2225 109 86 C64.945 86.495 64.945 86.495 20 87 C20.66 87.33 21.32 87.66 22 88 C22 98.23 22 108.46 22 119 C18.04 119 14.08 119 10 119 C10 108.77 10 98.54 10 88 C10.99 88 11.98 88 13 88 C13 87.34 13 86.68 13 86 C-32.21 86 -77.42 86 -124 86 C-124 82.7 -124 79.4 -124 76 C-121.44284071 74.72142036 -119.65005057 74.8770076 -116.78622437 74.87974548 C-115.1287191 74.87768349 -115.1287191 74.87768349 -113.43772888 74.87557983 C-112.21997269 74.87917511 -111.00221649 74.88277039 -109.74755859 74.88647461 C-108.4695488 74.88632858 -107.191539 74.88618256 -105.87480164 74.8860321 C-102.36468746 74.88574451 -98.85460727 74.89163509 -95.34450102 74.89860606 C-91.67828766 74.90484594 -88.01207357 74.9054439 -84.34585571 74.90663147 C-77.40084359 74.90974291 -70.45584717 74.91795379 -63.51084197 74.92798096 C-54.12782576 74.94123483 -44.74480528 74.94664352 -35.36178207 74.95248318 C-20.57450962 74.96189379 -5.78727029 74.98181396 9 75 C9 54.54 9 34.08 9 13 C6.03 12.67 3.06 12.34 0 12 C0 8.04 0 4.08 0 0 Z " fill="#00617B" transform="translate(345,86)"/>
<path d="M0 0 C0.18115526 11.03034265 -0.385313 21.99051677 -1 33 C-2.4540625 33.29390625 -2.4540625 33.29390625 -3.9375 33.59375 C-18.09171503 36.66765418 -31.15333665 42.17907745 -42 52 C-43.00740234 52.87011719 -43.00740234 52.87011719 -44.03515625 53.7578125 C-50.06959828 59.31554523 -53.90737014 65.97720088 -58 73 C-58.66 73.99 -59.32 74.98 -60 76 C-63.0852788 75.35005437 -65.59022732 74.29680939 -68.37109375 72.8203125 C-69.19287109 72.38589844 -70.01464844 71.95148438 -70.86132812 71.50390625 C-71.71146484 71.04886719 -72.56160156 70.59382813 -73.4375 70.125 C-74.28376953 69.67769531 -75.13003906 69.23039062 -76.00195312 68.76953125 C-80.06596068 66.61182011 -84.08767001 64.4261266 -88 62 C-85.99208338 46.88484985 -69.45150566 30.64943023 -58.10546875 21.72265625 C-41.47392122 9.72579397 -20.89230077 0 0 0 Z " fill="#003C4C" transform="translate(111,8)"/>
<path d="M0 0 C0.37769531 0.79921875 0.75539063 1.5984375 1.14453125 2.421875 C9.62290915 19.33891942 23.13510115 32.15765574 41 39 C45.24603462 40.32045964 49.55205883 41.32772909 53.89453125 42.2734375 C57 43 57 43 58 44 C59.77944233 54.12744336 59.09026206 64.76027074 59 75 C36.63865922 74.16717539 14.58183364 65.05293601 -2 50 C-2.54060059 49.51692383 -3.08120117 49.03384766 -3.63818359 48.53613281 C-13.84482569 39.28423888 -22.24320024 28.59529119 -28 16 C-28 15.34 -28 14.68 -28 14 C-24.3366907 12.00086459 -20.67048184 10.00718702 -17.00146484 8.01855469 C-15.75325319 7.34101904 -14.50585192 6.66198825 -13.25927734 5.98144531 C-11.46922446 5.00453499 -9.67634352 4.03300652 -7.8828125 3.0625 C-6.80402832 2.47597656 -5.72524414 1.88945312 -4.61376953 1.28515625 C-2 0 -2 0 0 0 Z " fill="#006C88" transform="translate(51,143)"/>
<path d="M0 0 C2.52379877 2.52379877 2.23534328 4.0741581 2.24884033 7.51612854 C2.24164978 8.28504929 2.23445923 9.05397003 2.22705078 9.84619141 C2.22734283 10.65602982 2.22763489 11.46586823 2.22793579 12.30024719 C2.2265395 14.98412696 2.21096435 17.66773107 2.1953125 20.3515625 C2.19158343 22.20958301 2.18873596 24.06760548 2.18673706 25.92562866 C2.17909224 30.82146614 2.15943649 35.71718539 2.1373291 40.61297607 C2.11688893 45.60655111 2.10773926 50.60014521 2.09765625 55.59375 C2.07619138 65.39588534 2.04204522 75.19793285 2 85 C0 86 0 86 -2.28515625 85.43359375 C-14.94833083 80.89194886 -24.84158969 73.99172697 -30.875 61.625 C-35.8931152 49.45268003 -36.09222433 37.88527412 -31.22265625 25.6328125 C-25.43339973 13.16649016 -16.49407823 6.31890759 -4 1 C-1.765625 0.2109375 -1.765625 0.2109375 0 0 Z " fill="#00546A" transform="translate(108,70)"/>
<path d="M0 0 C20.79 0 41.58 0 63 0 C63 1.32 63 2.64 63 4 C55.08 4.495 55.08 4.495 47 5 C47.99 6.65 48.98 8.3 50 10 C50.01171875 12.28125 50.01171875 12.28125 49.6875 14.5 C49.49076717 16.83088118 49.49076717 16.83088118 50 19 C51.89358225 20.76734344 53.72834984 21.80404024 56.0546875 22.9296875 C58 24 58 24 60 27 C60.4375 29.875 60.4375 29.875 60 33 C57.59757084 35.95155582 55.67202349 37.70132289 52.1875 39.25 C51.465625 39.8275 50.74375 40.405 50 41 C49.81704813 43.03335694 49.81704813 43.03335694 50 45.3125 C50.18786049 48.79076541 50.01327146 50.77498581 47.9375 53.625 C45 56 45 56 41.625 56.0625 C38 55 38 55 34.625 53.1875 C30.51876558 51.84235424 30.10177112 52.07662238 26.4375 53.875 C25.30248047 54.45894531 25.30248047 54.45894531 24.14453125 55.0546875 C21.05743604 56.41548357 19.11719613 56.18750329 16 55 C13.7677375 52.69913369 13.04409925 51.42100087 12.70703125 48.203125 C12.74183594 47.22859375 12.77664063 46.2540625 12.8125 45.25 C12.83957031 44.26515625 12.86664063 43.2803125 12.89453125 42.265625 C12.92933594 41.51796875 12.96414063 40.7703125 13 40 C12.113125 39.773125 11.22625 39.54625 10.3125 39.3125 C6.44338069 37.77945273 4.54095762 36.2882981 2 33 C1.375 30 1.375 30 2 27 C4.46143568 24.0728873 6.82124178 22.11917214 10 20 C10.99 20 11.98 20 13 20 C12.97679687 19.25234375 12.95359375 18.5046875 12.9296875 17.734375 C12.90261719 16.25710937 12.90261719 16.25710937 12.875 14.75 C12.85179687 13.77546875 12.82859375 12.8009375 12.8046875 11.796875 C13 9 13 9 15 5 C10.05 4.67 5.1 4.34 0 4 C0 2.68 0 1.36 0 0 Z M24 4 C26.78959901 6.09219926 28.93224489 7.57568513 32 9 C34.01920337 7.69593116 36.01924973 6.36176581 38 5 C38 4.67 38 4.34 38 4 C33.38 4 28.76 4 24 4 Z M19 9 C19 11.97 19 14.94 19 18 C23.82442184 16.73053486 23.82442184 16.73053486 27 13 C23.33019796 10.08828211 23.33019796 10.08828211 19 9 Z M35 13 C35.99 13.495 35.99 13.495 37 14 C37.33 14.99 37.66 15.98 38 17 C40.97 17.495 40.97 17.495 44 18 C44.26932521 13.34947128 44.26932521 13.34947128 43 9 C39.71841516 9 37.62118892 11.17656423 35 13 Z M47 25 C46.06619039 29.53140653 46.06619039 29.53140653 47 34 C50.93075644 33.42547254 50.93075644 33.42547254 54 31 C54 30.01 54 29.02 54 28 C51.69 27.01 49.38 26.02 47 25 Z M14 25 C11.42672567 26.21030974 11.42672567 26.21030974 9 28 C9 29.32 9 30.64 9 32 C10.98 32.99 12.96 33.98 15 35 C16.28776153 32.22174544 16.28776153 32.22174544 17 29 C15.75651531 26.61694804 15.75651531 26.61694804 14 25 Z M24 27 C23.67 27.99 23.34 28.98 23 30 C23.66 30.66 24.32 31.32 25 32 C25 30.35 25 28.7 25 27 C24.67 27 24.34 27 24 27 Z M38 28 C39 31 39 31 39 31 Z M26 35 C26.33 35.66 26.66 36.32 27 37 C29.64 37 32.28 37 35 37 C35.33 36.34 35.66 35.68 36 35 C32.7 35 29.4 35 26 35 Z M19 42 C18.01879536 45.05263664 18.01879536 46.94736336 19 50 C22.68754757 49.50168276 24.60490662 48.89932357 27 46 C25.84315671 43.9004467 25.84315671 43.9004467 24 42 C21.37374861 41.66574265 21.37374861 41.66574265 19 42 Z M38 42 C36.0645852 44.39056942 36.0645852 44.39056942 35 47 C38.34401469 49.46823846 38.34401469 49.46823846 42.3125 49.6875 C43.1478125 49.3471875 43.1478125 49.3471875 44 49 C44 46.69 44 44.38 44 42 C41.12635209 41.58253392 41.12635209 41.58253392 38 42 Z " fill="#00C5E9" transform="translate(371,68)"/>
<path d="M0 0 C4.95 0 9.9 0 15 0 C16.64072259 3.28144519 16.14274434 6.89789996 16.125 10.5 C16.13080078 11.67755859 16.13080078 11.67755859 16.13671875 12.87890625 C16.12665394 18.74669213 16.12665394 18.74669213 15 21 C20.94 21 26.88 21 33 21 C33 14.07 33 7.14 33 0 C38.28 0 43.56 0 49 0 C49 17.49 49 34.98 49 53 C43.72 53 38.44 53 33 53 C33 46.4 33 39.8 33 33 C27.06 33 21.12 33 15 33 C15.33 33.66 15.66 34.32 16 35 C16.09809858 37.67751418 16.1390397 40.32309717 16.125 43 C16.13080078 44.10601562 16.13080078 44.10601562 16.13671875 45.234375 C16.1266598 50.7466804 16.1266598 50.7466804 15 53 C10.05 53 5.1 53 0 53 C0 35.51 0 18.02 0 0 Z " fill="#00546A" transform="translate(233,86)"/>
<path d="M0 0 C13.86 0 27.72 0 42 0 C42 3.96 42 7.92 42 12 C33.75 12 25.5 12 17 12 C17 14.97 17 17.94 17 21 C23.6 21 30.2 21 37 21 C37.87890625 29.49609375 37.87890625 29.49609375 38 32 C37 33 37 33 35.05053711 33.11352539 C34.2178833 33.10828857 33.38522949 33.10305176 32.52734375 33.09765625 C31.62822266 33.09443359 30.72910156 33.09121094 29.80273438 33.08789062 C28.38444336 33.07532227 28.38444336 33.07532227 26.9375 33.0625 C25.98810547 33.05798828 25.03871094 33.05347656 24.06054688 33.04882812 C21.70696935 33.0370011 19.35351523 33.02052025 17 33 C17 35.64 17 38.28 17 41 C25.58 41 34.16 41 43 41 C43 44.96 43 48.92 43 53 C28.81 53 14.62 53 0 53 C0 35.51 0 18.02 0 0 Z " fill="#00546A" transform="translate(289,86)"/>
<path d="M0 0 C20.79 0 41.58 0 63 0 C63 1.32 63 2.64 63 4 C55.08 4.495 55.08 4.495 47 5 C47.99 6.65 48.98 8.3 50 10 C50.01171875 12.28125 50.01171875 12.28125 49.6875 14.5 C49.49076717 16.83088118 49.49076717 16.83088118 50 19 C51.89358225 20.76734344 53.72834984 21.80404024 56.0546875 22.9296875 C58 24 58 24 60 27 C60.4375 29.875 60.4375 29.875 60 33 C57.59757084 35.95155582 55.67202349 37.70132289 52.1875 39.25 C51.465625 39.8275 50.74375 40.405 50 41 C49.81704813 43.03335694 49.81704813 43.03335694 50 45.3125 C50.18786049 48.79076541 50.01327146 50.77498581 47.9375 53.625 C45 56 45 56 41.625 56.0625 C38 55 38 55 34.625 53.1875 C30.51876558 51.84235424 30.10177112 52.07662238 26.4375 53.875 C25.30248047 54.45894531 25.30248047 54.45894531 24.14453125 55.0546875 C21.05743604 56.41548357 19.11719613 56.18750329 16 55 C13.7677375 52.69913369 13.04409925 51.42100087 12.70703125 48.203125 C12.74183594 47.22859375 12.77664063 46.2540625 12.8125 45.25 C12.83957031 44.26515625 12.86664063 43.2803125 12.89453125 42.265625 C12.92933594 41.51796875 12.96414063 40.7703125 13 40 C12.113125 39.773125 11.22625 39.54625 10.3125 39.3125 C6.44338069 37.77945273 4.54095762 36.2882981 2 33 C1.375 30 1.375 30 2 27 C4.46143568 24.0728873 6.82124178 22.11917214 10 20 C10.99 20 11.98 20 13 20 C12.97679687 19.25234375 12.95359375 18.5046875 12.9296875 17.734375 C12.90261719 16.25710937 12.90261719 16.25710937 12.875 14.75 C12.85179687 13.77546875 12.82859375 12.8009375 12.8046875 11.796875 C13 9 13 9 15 5 C10.05 4.67 5.1 4.34 0 4 C0 2.68 0 1.36 0 0 Z M24 4 C26.78959901 6.09219926 28.93224489 7.57568513 32 9 C34.01920337 7.69593116 36.01924973 6.36176581 38 5 C38 4.67 38 4.34 38 4 C33.38 4 28.76 4 24 4 Z M15 8 C14.75639927 11.12814514 14.75639927 11.12814514 14.875 14.625 C14.90207031 16.40777344 14.90207031 16.40777344 14.9296875 18.2265625 C14.95289063 19.14179687 14.97609375 20.05703125 15 21 C13.86691406 21.18175781 13.86691406 21.18175781 12.7109375 21.3671875 C8.72663998 22.29723966 6.73757047 24.00170853 4 27 C3.50391566 30.61124962 3.50391566 30.61124962 5 34 C7.95505946 36.44113607 10.37526039 37.79175346 14 39 C14.03738281 39.83144531 14.07476562 40.66289063 14.11328125 41.51953125 C14.21189453 43.14955078 14.21189453 43.14955078 14.3125 44.8125 C14.39951172 46.43091797 14.39951172 46.43091797 14.48828125 48.08203125 C14.78122229 50.9775566 14.78122229 50.9775566 16.33984375 52.890625 C18.11772817 54.30740567 18.11772817 54.30740567 21.25 53.9375 C25.50728404 52.87317899 28.31092121 51.33390699 32 49 C32.78375 49.639375 33.5675 50.27875 34.375 50.9375 C38.13586454 53.892465 40.19766688 54.49003399 45 54 C47.39973224 51.67281781 47.9674136 50.33542267 48.29296875 46.984375 C48.24076172 45.38335937 48.24076172 45.38335937 48.1875 43.75 C48.16042969 42.67234375 48.13335937 41.5946875 48.10546875 40.484375 C48.07066406 39.66453125 48.03585937 38.8446875 48 38 C49.15048828 37.80470703 49.15048828 37.80470703 50.32421875 37.60546875 C53.82444247 36.81344732 55.53908113 35.60154281 58 33 C58.9168463 30.04374733 58.9168463 30.04374733 58 27 C54.63032676 23.47359778 51.91476244 21.43365551 47 21 C47.33 20.34 47.66 19.68 48 19 C48.14640501 17.35857459 48.22096589 15.7101859 48.25 14.0625 C48.28867187 12.74958984 48.28867187 12.74958984 48.328125 11.41015625 C48.18949986 8.96115941 48.18949986 8.96115941 46.69140625 7.2109375 C43.80642267 5.14547581 41.42882823 5.59318987 38 6 C36.96875 6.70125 35.9375 7.4025 34.875 8.125 C33.451875 9.053125 33.451875 9.053125 32 10 C28.72603721 9.2386133 26.80935535 7.87290357 24 6 C18.96483791 5.4122286 18.96483791 5.4122286 15 8 Z " fill="#213336" transform="translate(371,68)"/>
<path d="M0 0 C4.57071175 0.34495938 7.58325171 0.85659158 11 4 C9.43358249 8.30764815 7.31663844 12.06171464 5 16 C5.37769531 15.50886719 5.75539063 15.01773438 6.14453125 14.51171875 C8.71063292 12.42102117 10.42570933 12.69737798 13.6875 12.8125 C14.68136719 12.83957031 15.67523438 12.86664063 16.69921875 12.89453125 C17.83810547 12.94673828 17.83810547 12.94673828 19 13 C21.95047835 17.61012242 23.5497272 20.36529617 23 26 C23.66 25.67 24.32 25.34 25 25 C25.495 27.475 25.495 27.475 26 30 C23.03 30.495 23.03 30.495 20 31 C21.134375 31.12375 22.26875 31.2475 23.4375 31.375 C24.613125 31.58125 25.78875 31.7875 27 32 C28.26026798 34.52053595 27.91874445 35.8542098 27.5625 38.625 C27.40974609 39.85089844 27.40974609 39.85089844 27.25390625 41.1015625 C27.17011719 41.72804687 27.08632813 42.35453125 27 43 C24.875 43.75 24.875 43.75 22 44 C18.6875 42.25 18.6875 42.25 16 40 C16 37 16 37 17 34 C15.35 34.66 13.7 35.32 12 36 C11.566875 35.0409375 11.566875 35.0409375 11.125 34.0625 C10.17176549 31.84793921 10.17176549 31.84793921 8 31 C8 30.34 8 29.68 8 29 C7.34 29.33 6.68 29.66 6 30 C4.00039988 30.039992 1.99952758 30.04346799 0 30 C0 29.01 0 28.02 0 27 C-0.86625 27.268125 -1.7325 27.53625 -2.625 27.8125 C-6.33112587 28.01839588 -6.70984739 27.82153412 -9.375 25.5625 C-10.24125 24.716875 -11.1075 23.87125 -12 23 C-11.875 21.25 -11.875 21.25 -11 19 C-8.1875 16.6875 -8.1875 16.6875 -5 15 C-2.80078125 15.39453125 -2.80078125 15.39453125 -1 16 C-1.01160156 14.92878906 -1.02320313 13.85757813 -1.03515625 12.75390625 C-1.04453299 11.35677257 -1.05363331 9.95963701 -1.0625 8.5625 C-1.07506836 7.50192383 -1.07506836 7.50192383 -1.08789062 6.41992188 C-1.09653588 4.61306441 -1.05220011 2.80612397 -1 1 C-0.67 0.67 -0.34 0.34 0 0 Z M1 1 C1 3.97 1 6.94 1 10 C5.82442184 8.73053486 5.82442184 8.73053486 9 5 C5.33019796 2.08828211 5.33019796 2.08828211 1 1 Z M-4 17 C-6.57327433 18.21030974 -6.57327433 18.21030974 -9 20 C-9 21.32 -9 22.64 -9 24 C-7.02 24.99 -5.04 25.98 -3 27 C-1.71223847 24.22174544 -1.71223847 24.22174544 -1 21 C-2.24348469 18.61694804 -2.24348469 18.61694804 -4 17 Z M6 19 C5.67 19.99 5.34 20.98 5 22 C5.66 22.66 6.32 23.32 7 24 C7 22.35 7 20.7 7 19 C6.67 19 6.34 19 6 19 Z M20 20 C21 23 21 23 21 23 Z M8 27 C8.33 27.66 8.66 28.32 9 29 C11.64 29 14.28 29 17 29 C17.33 28.34 17.66 27.68 18 27 C14.7 27 11.4 27 8 27 Z M20 34 C18.0645852 36.39056942 18.0645852 36.39056942 17 39 C20.34401469 41.46823846 20.34401469 41.46823846 24.3125 41.6875 C25.1478125 41.3471875 25.1478125 41.3471875 26 41 C26 38.69 26 36.38 26 34 C23.12635209 33.58253392 23.12635209 33.58253392 20 34 Z " fill="#156675" transform="translate(389,76)"/>
<path d="M0 0 C20.79 0 41.58 0 63 0 C63 1.32 63 2.64 63 4 C41.95836112 5.33901338 21.04978241 4.733077 0 4 C0 2.68 0 1.36 0 0 Z " fill="#F6F6F6" transform="translate(371,68)"/>
<path d="M0 0 C2.31 0 4.62 0 7 0 C7.02472359 4.50235595 7.04287119 9.00467236 7.05493164 13.50708008 C7.0599596 15.0386626 7.06678284 16.57024033 7.07543945 18.10180664 C7.08757229 20.30356022 7.09324367 22.50525033 7.09765625 24.70703125 C7.10281754 25.39150833 7.10797882 26.07598541 7.11329651 26.78120422 C7.1136536 29.80906242 6.96616619 32.10150142 6 35 C4.515 35.495 4.515 35.495 3 36 C2.01 35.34 1.02 34.68 0 34 C-0.26697888 31.37537756 -0.34832984 28.98934067 -0.29296875 26.3671875 C-0.28872391 25.61535187 -0.28447906 24.86351624 -0.28010559 24.08889771 C-0.2632917 21.68390315 -0.22563624 19.27974191 -0.1875 16.875 C-0.17245659 15.24610584 -0.15876758 13.61719856 -0.14648438 11.98828125 C-0.11337954 7.99186566 -0.06158009 3.99607418 0 0 Z " fill="#007998" transform="translate(358,206)"/>
<path d="M0 0 C2.68820231 0.84890599 5.05536021 2.02835523 7.5625 3.3125 C8.7690625 3.6528125 8.7690625 3.6528125 10 4 C10.598125 3.525625 11.19625 3.05125 11.8125 2.5625 C14.36725476 0.73767517 15.09341621 0.82457278 18.125 1.125 C22 2 22 2 24 5 C24.33333333 11.33333333 24.33333333 11.33333333 23 14 C22.01 14.33 21.02 14.66 20 15 C20.66 15.33 21.32 15.66 22 16 C21.34 17.32 20.68 18.64 20 20 C17.5 18.625 17.5 18.625 15 17 C15 16.34 15 15.68 15 15 C13.22825181 15.08723378 11.45752623 15.19541655 9.6875 15.3125 C8.70136719 15.37050781 7.71523438 15.42851563 6.69921875 15.48828125 C3.75615543 16.04622813 2.81817001 16.68540132 1 19 C0.67 18.34 0.34 17.68 0 17 C0.44472656 16.38511719 0.88945312 15.77023438 1.34765625 15.13671875 C2.19650391 13.92435547 2.19650391 13.92435547 3.0625 12.6875 C3.91521484 11.48673828 3.91521484 11.48673828 4.78515625 10.26171875 C5.18605469 9.51535156 5.58695312 8.76898438 6 8 C5.35932024 4.91240441 5.35932024 4.91240441 3.15234375 4.05078125 C2.42144531 3.80714844 1.69054687 3.56351562 0.9375 3.3125 C0.20402344 3.06113281 -0.52945312 2.80976562 -1.28515625 2.55078125 C-1.85105469 2.36902344 -2.41695313 2.18726562 -3 2 C-2.01 1.34 -1.02 0.68 0 0 Z M13 7 C13.99 7.495 13.99 7.495 15 8 C15.33 8.99 15.66 9.98 16 11 C18.97 11.495 18.97 11.495 22 12 C22.26932521 7.34947128 22.26932521 7.34947128 21 3 C17.71841516 3 15.62118892 5.17656423 13 7 Z " fill="#00C2E4" transform="translate(393,74)"/>
<path d="M0 0 C0.78375 0.04125 1.5675 0.0825 2.375 0.125 C1.72015625 0.45113281 1.0653125 0.77726562 0.390625 1.11328125 C-2.0261825 3.10180378 -2.0261825 3.10180378 -2.015625 6.91796875 C-1.98910276 8.38332231 -1.94149117 9.84841551 -1.875 11.3125 C-1.84792969 12.43688477 -1.84792969 12.43688477 -1.8203125 13.58398438 C-1.77324109 15.4315371 -1.70149766 17.27843159 -1.625 19.125 C-2.38167969 18.92003906 -3.13835937 18.71507813 -3.91796875 18.50390625 C-6.86516948 17.80633087 -6.86516948 17.80633087 -9.9375 20.0625 C-11.2678125 21.0834375 -11.2678125 21.0834375 -12.625 22.125 C-12.26302104 24.74934747 -11.79843943 25.94513689 -9.9375 27.875 C-7.02072708 29.45163401 -4.89209987 29.34775681 -1.625 29.125 C-1.625 30.115 -1.625 31.105 -1.625 32.125 C2.335 31.63 2.335 31.63 6.375 31.125 C6.375 31.785 6.375 32.445 6.375 33.125 C9.345 33.125 12.315 33.125 15.375 33.125 C15.375 33.455 15.375 33.785 15.375 34.125 C13.065 34.125 10.755 34.125 8.375 34.125 C9.695 35.775 11.015 37.425 12.375 39.125 C11.715 39.125 11.055 39.125 10.375 39.125 C10.045 39.785 9.715 40.445 9.375 41.125 C6.375 37.375 6.375 37.375 6.375 35.125 C3.405 34.795 0.435 34.465 -2.625 34.125 C-2.955 36.765 -3.285 39.405 -3.625 42.125 C-3.955 42.125 -4.285 42.125 -4.625 42.125 C-4.604375 41.52171875 -4.58375 40.9184375 -4.5625 40.296875 C-4.62950732 37.70034153 -4.80800917 35.59735967 -5.625 33.125 C-7.58647421 31.59892995 -9.38252219 30.81467442 -11.71484375 29.9765625 C-13.625 29.125 -13.625 29.125 -15.625 26.125 C-16.125 23.75 -16.125 23.75 -15.625 21.125 C-11.98092085 17.39617482 -9.80566529 15.93696117 -4.625 15.125 C-4.64820313 14.20976563 -4.67140625 13.29453125 -4.6953125 12.3515625 C-4.71335937 11.16304687 -4.73140625 9.97453125 -4.75 8.75 C-4.77320313 7.56664063 -4.79640625 6.38328125 -4.8203125 5.1640625 C-4.5707518 1.28089801 -3.97031482 0.18906261 0 0 Z " fill="#00C2E4" transform="translate(390.625,73.875)"/>
<path d="M0 0 C0.33 0 0.66 0 1 0 C1.08142927 1.7492214 1.13938541 3.49954542 1.1875 5.25 C1.23970703 6.71179688 1.23970703 6.71179688 1.29296875 8.203125 C0.9562551 11.417618 0.26309323 12.72628192 -2 15 C-6.06451042 15.72257963 -7.66839531 15.20806569 -11.1875 13 C-12.115625 12.34 -13.04375 11.68 -14 11 C-17.21937004 10.73208778 -17.21937004 10.73208778 -20.25 13.0625 C-23.35657143 14.95028861 -24.02273591 14.99855645 -27.9375 14.75 C-29.4534375 14.37875 -29.4534375 14.37875 -31 14 C-32.51403812 9.15507803 -31.36602172 5.7408989 -30 1 C-21.76595745 1.35188216 -21.76595745 1.35188216 -18.5625 4.0625 C-17.7890625 5.0215625 -17.7890625 5.0215625 -17 6 C-16.34 6 -15.68 6 -15 6 C-14.67 5.01 -14.34 4.02 -14 3 C-13.34 3 -12.68 3 -12 3 C-12.33 4.65 -12.66 6.3 -13 8 C-8.4947161 11.35622898 -8.4947161 11.35622898 -3 12 C-0.97649676 8.96474514 -0.67875982 7.80573798 -0.375 4.3125 C-0.30023438 3.50425781 -0.22546875 2.69601563 -0.1484375 1.86328125 C-0.09945313 1.24839844 -0.05046875 0.63351563 0 0 Z M-28 3 C-28.98120464 6.05263664 -28.98120464 7.94736336 -28 11 C-24.31245243 10.50168276 -22.39509338 9.89932357 -20 7 C-21.15684329 4.9004467 -21.15684329 4.9004467 -23 3 C-25.62625139 2.66574265 -25.62625139 2.66574265 -28 3 Z " fill="#00C4E8" transform="translate(418,107)"/>
<path d="M0 0 C0.99 0 1.98 0 3 0 C5 2 5 2 5 5 C3.02 5.33 1.04 5.66 -1 6 C0.134375 6.12375 1.26875 6.2475 2.4375 6.375 C3.613125 6.58125 4.78875 6.7875 6 7 C7.26026798 9.52053595 6.91874445 10.8542098 6.5625 13.625 C6.46066406 14.44226563 6.35882813 15.25953125 6.25390625 16.1015625 C6.17011719 16.72804688 6.08632813 17.35453125 6 18 C3.875 18.75 3.875 18.75 1 19 C-2.3125 17.25 -2.3125 17.25 -5 15 C-5 12 -5 12 -4 9 C-5.65 9.66 -7.3 10.32 -9 11 C-9.28875 10.38125 -9.5775 9.7625 -9.875 9.125 C-10.93720042 6.86674235 -10.93720042 6.86674235 -13 5 C-9.37 5 -5.74 5 -2 5 C-1.34 3.35 -0.68 1.7 0 0 Z M-1 9 C-2.9354148 11.39056942 -2.9354148 11.39056942 -4 14 C-0.65598531 16.46823846 -0.65598531 16.46823846 3.3125 16.6875 C4.1478125 16.3471875 4.1478125 16.3471875 5 16 C5 13.69 5 11.38 5 9 C2.12635209 8.58253392 2.12635209 8.58253392 -1 9 Z " fill="#0D8095" transform="translate(410,101)"/>
<path d="M0 0 C2 2 2 2 2.25 4.5 C2 7 2 7 0 9 C-3 9.3125 -3 9.3125 -6 9 C-8 6 -8 6 -7.75 3.375 C-7.5025 2.59125 -7.255 1.8075 -7 1 C-4.48718205 -0.25640898 -2.78302919 -0.20872719 0 0 Z " fill="#00CCF0" transform="translate(405,93)"/>
<path d="M0 0 C2.3125 1.8125 2.3125 1.8125 3.3125 4.8125 C3.1840014 6.27246287 3.03657637 7.73082689 2.875 9.1875 C2.73001571 11.58054965 2.73001571 11.58054965 3.3125 13.8125 C5.20783271 15.58205548 7.03845428 16.6153811 9.3671875 17.7421875 C11.3125 18.8125 11.3125 18.8125 13.3125 21.8125 C13.5625 24.875 13.5625 24.875 13.3125 27.8125 C12.6525 28.4725 11.9925 29.1325 11.3125 29.8125 C11.250625 28.575 11.18875 27.3375 11.125 26.0625 C10.70700899 22.73034632 10.47748177 21.98664743 8.0625 19.4375 C5.51991067 17.93506085 3.05949018 16.8725801 0.3125 15.8125 C0.33570313 14.96945313 0.35890625 14.12640625 0.3828125 13.2578125 C0.40085937 12.16210938 0.41890625 11.06640625 0.4375 9.9375 C0.46070313 8.84695312 0.48390625 7.75640625 0.5078125 6.6328125 C0.61310534 3.6753949 0.61310534 3.6753949 -1.6875 1.8125 C-4.25811311 1.16482207 -4.25811311 1.16482207 -6.6875 0.8125 C-3.90547185 -1.14522351 -3.20498669 -1.41615691 0 0 Z " fill="#243C40" transform="translate(417.6875,73.1875)"/>
<path d="M0 0 C0.33 0.99 0.66 1.98 1 3 C3.64 2.67 6.28 2.34 9 2 C9 2.66 9 3.32 9 4 C11.97 4 14.94 4 18 4 C18 4.33 18 4.66 18 5 C15.69 5 13.38 5 11 5 C12.32 6.65 13.64 8.3 15 10 C14.34 10 13.68 10 13 10 C12.67 10.66 12.34 11.32 12 12 C9 8.25 9 8.25 9 6 C6.03 5.67 3.06 5.34 0 5 C-0.33 7.64 -0.66 10.28 -1 13 C-1.33 13 -1.66 13 -2 13 C-2.06058594 12.37351562 -2.12117188 11.74703125 -2.18359375 11.1015625 C-2.26738281 10.28429687 -2.35117187 9.46703125 -2.4375 8.625 C-2.51871094 7.81289062 -2.59992188 7.00078125 -2.68359375 6.1640625 C-2.89090114 3.95727195 -2.89090114 3.95727195 -4 2 C-2.68 2 -1.36 2 0 2 C0 1.34 0 0.68 0 0 Z " fill="#00C7EB" transform="translate(388,103)"/>
<path d="M0 0 C4.40114397 0.50298788 6.71195019 2.08772731 10 5 C9.8125 7.3125 9.8125 7.3125 9 10 C5.68035674 12.60188256 4.30683959 13 0 13 C-1.93443317 10.15524534 -1.99127818 8.89882691 -1.6875 5.375 C-1 2 -1 2 0 0 Z M1 2 C0.06619039 6.53140653 0.06619039 6.53140653 1 11 C4.93075644 10.42547254 4.93075644 10.42547254 8 8 C8 7.01 8 6.02 8 5 C5.69 4.01 3.38 3.02 1 2 Z " fill="#243D42" transform="translate(417,91)"/>
<path d="M0 0 C4.57071175 0.34495938 7.58325171 0.85659158 11 4 C9.92598892 6.91517292 9.22189824 8.77810176 7 11 C4.34462628 11.56520003 1.70855287 11.73788198 -1 12 C-1.02687279 10.18757948 -1.04633715 8.37504767 -1.0625 6.5625 C-1.07410156 5.55316406 -1.08570313 4.54382813 -1.09765625 3.50390625 C-1 1 -1 1 0 0 Z M1 1 C1 3.97 1 6.94 1 10 C5.82442184 8.73053486 5.82442184 8.73053486 9 5 C5.33019796 2.08828211 5.33019796 2.08828211 1 1 Z " fill="#3A494C" transform="translate(389,76)"/>
<path d="M0 0 C0.886875 0.103125 1.77375 0.20625 2.6875 0.3125 C3.94776798 2.83303595 3.60624445 4.1667098 3.25 6.9375 C3.14816406 7.75476563 3.04632813 8.57203125 2.94140625 9.4140625 C2.85761719 10.04054688 2.77382813 10.66703125 2.6875 11.3125 C0.5625 12.0625 0.5625 12.0625 -2.3125 12.3125 C-5.625 10.5625 -5.625 10.5625 -8.3125 8.3125 C-8.3125 5.3125 -8.3125 5.3125 -6.1875 2.625 C-3.3125 0.3125 -3.3125 0.3125 0 0 Z M-4.3125 2.3125 C-6.2479148 4.70306942 -6.2479148 4.70306942 -7.3125 7.3125 C-3.96848531 9.78073846 -3.96848531 9.78073846 0 10 C0.8353125 9.6596875 0.8353125 9.6596875 1.6875 9.3125 C1.6875 7.0025 1.6875 4.6925 1.6875 2.3125 C-1.18614791 1.89503392 -1.18614791 1.89503392 -4.3125 2.3125 Z " fill="#1A363B" transform="translate(413.3125,107.6875)"/>
<path d="M0 0 C8.28197802 0.34725275 8.28197802 0.34725275 11.0625 2.875 C12 5 12 5 12 8 C5.61985816 12.04893617 5.61985816 12.04893617 2.625 11.8125 C1 11 1 11 0 10 C-0.07205511 8.31391034 -0.08386068 6.62499341 -0.0625 4.9375 C-0.05347656 4.01839844 -0.04445313 3.09929687 -0.03515625 2.15234375 C-0.02355469 1.44207031 -0.01195312 0.73179688 0 0 Z M2 2 C1.01879536 5.05263664 1.01879536 6.94736336 2 10 C5.68754757 9.50168276 7.60490662 8.89932357 10 6 C8.84315671 3.9004467 8.84315671 3.9004467 7 2 C4.37374861 1.66574265 4.37374861 1.66574265 2 2 Z " fill="#253538" transform="translate(388,108)"/>
<path d="M0 0 C0.53625 0.2475 1.0725 0.495 1.625 0.75 C3.05357143 9.32142857 3.05357143 9.32142857 0.625 12.75 C-2.87911265 12.4314443 -4.9590105 12.05932553 -7.8125 9.9375 C-9.375 7.75 -9.375 7.75 -9.5 5.75 C-7.47856956 2.15634588 -4.21401858 -0.4435809 0 0 Z M-1.375 1.75 C-3.94827433 2.96030974 -3.94827433 2.96030974 -6.375 4.75 C-6.375 6.07 -6.375 7.39 -6.375 8.75 C-4.395 9.74 -2.415 10.73 -0.375 11.75 C0.91276153 8.97174544 0.91276153 8.97174544 1.625 5.75 C0.38151531 3.36694804 0.38151531 3.36694804 -1.375 1.75 Z " fill="#233C41" transform="translate(386.375,91.25)"/>
<path d="M0 0 C2.44576827 3.66865241 2.23607254 5.67200343 2 10 C1.67 10.66 1.34 11.32 1 12 C-6.35135135 11.63243243 -6.35135135 11.63243243 -9.5 8.5625 C-11 6 -11 6 -11 4 C-7.39739777 1.1514308 -4.68918017 -0.91178503 0 0 Z M-9 5 C-8.01 5.495 -8.01 5.495 -7 6 C-6.67 6.99 -6.34 7.98 -6 9 C-3.03 9.495 -3.03 9.495 0 10 C0.26932521 5.34947128 0.26932521 5.34947128 -1 1 C-4.28158484 1 -6.37881108 3.17656423 -9 5 Z " fill="#1C363A" transform="translate(415,76)"/>
<path d="M0 0 C1.53627793 2.82675139 2.48013945 4.66293856 2.5625 7.875 C1.125 10.1875 1.125 10.1875 -0.4375 11.875 C-1.0975 11.215 -1.7575 10.555 -2.4375 9.875 C-2.1075 9.545 -1.7775 9.215 -1.4375 8.875 C-1.39669217 6.87541636 -1.39495644 4.87454746 -1.4375 2.875 C-4.40437001 1.22673889 -7.09376525 0.43228913 -10.4375 -0.125 C-10.4375 -0.455 -10.4375 -0.785 -10.4375 -1.125 C-3.1112338 -2.71235768 -3.1112338 -2.71235768 0 0 Z M-0.4375 4.875 C0.5625 7.875 0.5625 7.875 0.5625 7.875 Z " fill="#414F51" transform="translate(409.4375,91.125)"/>
<path d="M0 0 C0.78375 0.04125 1.5675 0.0825 2.375 0.125 C1.72015625 0.45113281 1.0653125 0.77726562 0.390625 1.11328125 C-2.0261825 3.10180378 -2.0261825 3.10180378 -2.015625 6.91796875 C-1.98910276 8.38332231 -1.94149117 9.84841551 -1.875 11.3125 C-1.85695313 12.06208984 -1.83890625 12.81167969 -1.8203125 13.58398438 C-1.77324109 15.4315371 -1.70149766 17.27843159 -1.625 19.125 C-1.955 18.135 -2.285 17.145 -2.625 16.125 C-3.285 16.125 -3.945 16.125 -4.625 16.125 C-4.67884521 13.83358714 -4.71772087 11.54181812 -4.75 9.25 C-4.77320313 7.97382812 -4.79640625 6.69765625 -4.8203125 5.3828125 C-4.58068665 1.38585332 -4.11348722 0.19588034 0 0 Z " fill="#00CCF0" transform="translate(390.625,73.875)"/>
<path d="M0 0 C2.33944736 0.28730055 4.6739143 0.61936779 7 1 C6.67 1.66 6.34 2.32 6 3 C6.66 3.33 7.32 3.66 8 4 C7.34 5.32 6.68 6.64 6 8 C3.5 6.625 3.5 6.625 1 5 C1 4.34 1 3.68 1 3 C-1.97 3 -4.94 3 -8 3 C-8 2.67 -8 2.34 -8 2 C-6.865625 1.855625 -5.73125 1.71125 -4.5625 1.5625 C-1.19222799 1.38828522 -1.19222799 1.38828522 0 0 Z " fill="#0595AF" transform="translate(407,86)"/>
<path d="M0 0 C3.63 1.98 7.26 3.96 11 6 C10.67 8.97 10.34 11.94 10 15 C9.67 15 9.34 15 9 15 C9 12.36 9 9.72 9 7 C8.071875 6.731875 7.14375 6.46375 6.1875 6.1875 C3.24218975 5.09022755 1.84982123 4.46642831 0 2 C0 1.34 0 0.68 0 0 Z " fill="#202D30" transform="translate(375,101)"/>
<path d="M0 0 C1.33998047 0.06960937 1.33998047 0.06960937 2.70703125 0.140625 C3.60808594 0.17671875 4.50914062 0.2128125 5.4375 0.25 C6.46810547 0.31960937 6.46810547 0.31960937 7.51953125 0.390625 C7.51953125 0.720625 7.51953125 1.050625 7.51953125 1.390625 C6.26140625 1.49375 5.00328125 1.596875 3.70703125 1.703125 C1.21348515 2.02913633 -0.25906596 2.25492652 -2.41796875 3.578125 C-3.89573445 6.09901944 -4.16074221 8.5130861 -4.48046875 11.390625 C-5.47046875 11.060625 -6.46046875 10.730625 -7.48046875 10.390625 C-4.62573902 0.72846284 -4.62573902 0.72846284 0 0 Z " fill="#17272A" transform="translate(399.48046875,88.609375)"/>
<path d="M0 0 C0.66 0.33 1.32 0.66 2 1 C1.67 1.66 1.34 2.32 1 3 C3.31 3 5.62 3 8 3 C8 3.33 8 3.66 8 4 C7.07767578 4.16435547 7.07767578 4.16435547 6.13671875 4.33203125 C4.92435547 4.56986328 4.92435547 4.56986328 3.6875 4.8125 C2.48673828 5.03873047 2.48673828 5.03873047 1.26171875 5.26953125 C-1.23445587 6.07572236 -2.32422106 7.02052002 -4 9 C-4.33 8.34 -4.66 7.68 -5 7 C-3.35 4.69 -1.7 2.38 0 0 Z " fill="#00D0F6" transform="translate(398,84)"/>
<path d="M0 0 C-1.32 2.31 -2.64 4.62 -4 7 C-4.66 7 -5.32 7 -6 7 C-6.66 5.02 -7.32 3.04 -8 1 C-5.07175348 0.02391783 -3.04386724 -0.08226668 0 0 Z " fill="#0C899F" transform="translate(396,87)"/>
<path d="M0 0 C0.33 0 0.66 0 1 0 C1.08142927 1.7492214 1.13938541 3.49954542 1.1875 5.25 C1.22230469 6.22453125 1.25710938 7.1990625 1.29296875 8.203125 C0.95585995 11.42139031 0.2958992 12.74661745 -2 15 C-5.1875 15.25 -5.1875 15.25 -8 15 C-5 13 -5 13 -3 12 C-0.97649676 8.96474514 -0.67875982 7.80573798 -0.375 4.3125 C-0.30023438 3.50425781 -0.22546875 2.69601563 -0.1484375 1.86328125 C-0.09945313 1.24839844 -0.05046875 0.63351563 0 0 Z " fill="#01B3D3" transform="translate(418,107)"/>
<path d="M0 0 C3.375 -0.125 3.375 -0.125 7 0 C9 2 9 2 9.1953125 4.3828125 C9.17210937 5.28773437 9.14890625 6.19265625 9.125 7.125 C9.10695313 8.03507812 9.08890625 8.94515625 9.0703125 9.8828125 C9.04710937 10.58148438 9.02390625 11.28015625 9 12 C8.67 12 8.34 12 8 12 C7.34 9.03 6.68 6.06 6 3 C3.03 2.505 3.03 2.505 0 2 C0 1.34 0 0.68 0 0 Z " fill="#00CBEF" transform="translate(409,74)"/>
<path d="M0 0 C1 3 1 3 0.0625 5.1875 C-0.288125 5.785625 -0.63875 6.38375 -1 7 C-6.53846154 6.38461538 -6.53846154 6.38461538 -8.875 4.4375 C-9.24625 3.963125 -9.6175 3.48875 -10 3 C-9.67 2.34 -9.34 1.68 -9 1 C-7.02 2.32 -5.04 3.64 -3 5 C-2.01 3.35 -1.02 1.7 0 0 Z " fill="#1F3135" transform="translate(388,97)"/>
<path d="M0 0 C0.33 0.99 0.66 1.98 1 3 C1.66 3.33 2.32 3.66 3 4 C2.01 4 1.02 4 0 4 C-0.33 6.97 -0.66 9.94 -1 13 C-1.33 13 -1.66 13 -2 13 C-2.06058594 12.37351562 -2.12117188 11.74703125 -2.18359375 11.1015625 C-2.26738281 10.28429687 -2.35117187 9.46703125 -2.4375 8.625 C-2.51871094 7.81289062 -2.59992188 7.00078125 -2.68359375 6.1640625 C-2.89090114 3.95727195 -2.89090114 3.95727195 -4 2 C-2.68 2 -1.36 2 0 2 C0 1.34 0 0.68 0 0 Z " fill="#00D3F9" transform="translate(388,103)"/>
<path d="M0 0 C2.96175123 0.61277612 4.38058783 1.25372522 7 3 C9.62531524 3.16713569 9.62531524 3.16713569 12 3 C12 3.66 12 4.32 12 5 C7.90854474 6.16898722 6.45635697 6.24508059 2.625 4.1875 C1.75875 3.465625 0.8925 2.74375 0 2 C0 1.34 0 0.68 0 0 Z " fill="#01B6D7" transform="translate(376,100)"/>
<path d="M0 0 C0.66 0 1.32 0 2 0 C1.34 1.32 0.68 2.64 0 4 C1.65 5.65 3.3 7.3 5 9 C1.75791433 8.64950425 0.38472296 8.43778819 -1.8125 5.9375 C-2.204375 5.298125 -2.59625 4.65875 -3 4 C-1.625 2 -1.625 2 0 0 Z " fill="#172C30" transform="translate(407,110)"/>
<path d="M0 0 C1.32 0.66 2.64 1.32 4 2 C3.6875 4.375 3.6875 4.375 3 7 C2.01 7.66 1.02 8.32 0 9 C-0.99 8.67 -1.98 8.34 -3 8 C-2.360625 7.566875 -1.72125 7.13375 -1.0625 6.6875 C1.26746003 5.08760823 1.26746003 5.08760823 2 2 C1.34 2 0.68 2 0 2 C0 1.34 0 0.68 0 0 Z " fill="#203437" transform="translate(423,94)"/>
<path d="M0 0 C0.66 0 1.32 0 2 0 C1.67 0.53625 1.34 1.0725 1 1.625 C-0.22699204 4.5391061 -0.14233286 6.86867708 0 10 C-0.99 10 -1.98 10 -3 10 C-3.2295711 6.63295715 -3.33943529 4.58629732 -1.625 1.625 C-1.08875 1.08875 -0.5525 0.5525 0 0 Z " fill="#2C3A3D" transform="translate(376,91)"/>
<path d="M0 0 C0.33 0 0.66 0 1 0 C1.144375 1.093125 1.28875 2.18625 1.4375 3.3125 C1.88288104 6.93122987 1.88288104 6.93122987 3 10 C5.01508358 10.73323796 5.01508358 10.73323796 7 11 C4.69 10.67 2.38 10.34 0 10 C-0.95024979 6.30458414 -0.95024979 3.69541586 0 0 Z " fill="#01BADC" transform="translate(387,111)"/>
<path d="M0 0 C1.875 1.625 1.875 1.625 3 3 C2.01 3.495 2.01 3.495 1 4 C0.2575 3.54625 -0.485 3.0925 -1.25 2.625 C-4.23755784 0.85962491 -6.58148917 0.39750126 -10 0 C-6.22975476 -2.61016978 -4.04832185 -1.80882466 0 0 Z " fill="#25464C" transform="translate(399,74)"/>
<path d="M0 0 C0.33 0 0.66 0 1 0 C1.33 2.64 1.66 5.28 2 8 C3.65 8 5.3 8 7 8 C4.35261084 9.4606285 3.10551666 10 0 10 C0 6.7 0 3.4 0 0 Z " fill="#112225" transform="translate(388,78)"/>
<path d="M0 0 C-0.598125 0.2475 -1.19625 0.495 -1.8125 0.75 C-4.32682847 2.18675912 -5.40490765 3.60736148 -7 6 C-7.66 6.99 -8.32 7.98 -9 9 C-8.6875 5.625 -8.6875 5.625 -8 2 C-4.77208445 -0.1519437 -3.71599191 -0.20086443 0 0 Z " fill="#1F2728" transform="translate(393,72)"/>
<path d="M0 0 C1.32 0.66 2.64 1.32 4 2 C4 2.66 4 3.32 4 4 C2.02 4 0.04 4 -2 4 C-2 3.34 -2 2.68 -2 2 C-1.34 2 -0.68 2 0 2 C0 1.34 0 0.68 0 0 Z " fill="#145763" transform="translate(401,83)"/>
<path d="M0 0 C1.65 0 3.3 0 5 0 C5 0.33 5 0.66 5 1 C3.35 1 1.7 1 0 1 C0 0.67 0 0.34 0 0 Z " fill="#00546A" transform="translate(431,111)"/>
<path d="M0 0 C0.33 0.66 0.66 1.32 1 2 C0.01 1.67 -0.98 1.34 -2 1 C-1.34 0.67 -0.68 0.34 0 0 Z " fill="#005F77" transform="translate(420,142)"/>
<path d="" fill="#005A72" transform="translate(0,0)"/>
<path d="" fill="#00627B" transform="translate(0,0)"/>
<path d="" fill="#005D75" transform="translate(0,0)"/>
<path d="" fill="#006079" transform="translate(0,0)"/>
<path d="" fill="#005E77" transform="translate(0,0)"/>
<path d="" fill="#00566D" transform="translate(0,0)"/>
<path d="" fill="#00566D" transform="translate(0,0)"/>
<path d="" fill="#00546A" transform="translate(0,0)"/>
<path d="" fill="#005065" transform="translate(0,0)"/>
<path d="" fill="#004F64" transform="translate(0,0)"/>
<path d="" fill="#004F63" transform="translate(0,0)"/>
</svg>
